<?xml version="1.0" encoding="UTF-8"?>
<svg width="27px" height="20px" viewBox="0 0 27 20" version="1.1" xmlns="http://www.w3.org/2000/svg" xmlns:xlink="http://www.w3.org/1999/xlink">
    <!-- Generator: Sketch 47.1 (45422) - http://www.bohemiancoding.com/sketch -->
    <title>Group 16</title>
    <desc>Created with Sketch.</desc>
    <defs></defs>
    <g id="Page-1" stroke="none" stroke-width="1" fill="none" fill-rule="evenodd">
        <g id="JobUitwerken" transform="translate(-1307.000000, -178.000000)">
            <g id="Page-1-Copy" transform="translate(1076.000000, 163.000000)">
                <g id="Group-16" transform="translate(231.000000, 15.000000)">
                    <path d="M23.9267,19.1075 L2.25,19.1075 C1.1017,19.1075 0.1667,18.1733 0.1667,17.0242 L0.1667,2.8183 C0.1667,1.6692 1.1017,0.735 2.25,0.735 L23.9267,0.735 C25.075,0.735 26.01,1.6692 26.01,2.8183 L26.01,17.0242 C26.01,18.1733 25.075,19.1075 23.9267,19.1075 Z" id="Fill-14" fill="#003082"></path>
                    <path d="M21.0908,14.925 C20.9883,14.925 20.8858,14.8875 20.8058,14.8117 L16.0108,10.3133 C15.8433,10.1567 15.835,9.8925 15.9925,9.725 C16.15,9.5558 16.4125,9.5483 16.5817,9.7067 L21.3767,14.205 C21.5442,14.3617 21.5525,14.6258 21.395,14.7933 C21.3125,14.8808 21.2025,14.925 21.0908,14.925 Z" id="Fill-11" fill="#FFFFFF"></path>
                    <path d="M5.085,14.925 C4.9742,14.925 4.8633,14.8808 4.7808,14.7933 C4.6233,14.6258 4.6317,14.3617 4.7992,14.205 L9.5958,9.7067 C9.7642,9.55 10.0283,9.5567 10.185,9.725 C10.3425,9.8925 10.3342,10.1567 10.1667,10.3133 L5.37,14.8117 C5.29,14.8875 5.1875,14.925 5.085,14.925 Z" id="Fill-13" fill="#FFFFFF"></path>
                    <path d="M13.0883,12.015 C12.5342,12.015 11.98,11.8308 11.5583,11.4633 L0.8583,2.1292 C0.685,1.9783 0.6667,1.715 0.8175,1.5408 C0.97,1.3675 1.2325,1.3517 1.4058,1.5008 L12.1058,10.8342 C12.6383,11.2983 13.5383,11.2983 14.07,10.8342 L24.7567,1.5158 C24.9292,1.365 25.1917,1.3817 25.345,1.5558 C25.4958,1.73 25.4783,1.9925 25.305,2.1442 L14.6183,11.4625 C14.1958,11.8308 13.6425,12.015 13.0883,12.015 Z" id="Fill-15" fill="#FFFFFF"></path>
                </g>
            </g>
        </g>
    </g>
</svg>